<svg width="30" height="36" viewBox="0 0 30 36" fill="none" xmlns="http://www.w3.org/2000/svg"><path d="M14.5501 21.0026C9.41526 21.0026 7.03608 14.371 6.98709 9.64446C6.9836 9.31347 7.2488 9.04232 7.57979 9.03917C7.58189 9.03882 7.58399 9.03882 7.58609 9.03882C7.91428 9.03882 8.18158 9.30298 8.18508 9.63186C8.22007 12.9578 9.82322 19.8039 14.5494 19.8039C14.5627 19.8039 14.576 19.8039 14.5893 19.8039C19.3392 19.7654 20.9473 12.9344 20.9823 9.63186C20.9858 9.30297 21.2531 9.03882 21.5813 9.03882C21.5834 9.03882 21.5855 9.03882 21.5876 9.03917C21.9185 9.04232 22.1837 9.31347 22.1802 9.64446C22.1348 14.0123 20.0362 20.9585 14.5991 21.0019C14.583 21.0019 14.5662 21.0026 14.5501 21.0026Z" fill="#979797"/><path d="M0.598994 35.5861C0.268007 35.5861 0 35.3181 0 34.9871C0 30.8907 1.06643 27.1456 2.92639 24.7111C3.96483 23.3592 5.5064 23.1486 6.86533 22.9624C8.00454 22.8071 9.08007 22.6601 9.8533 21.9205C10.4348 21.3691 10.369 20.1655 10.299 18.8919C10.2809 18.5617 10.5342 18.279 10.8644 18.2608C11.1835 18.2384 11.4774 18.4952 11.4956 18.8262C11.581 20.3852 11.6615 21.8575 10.6797 22.7882C9.62798 23.7951 8.24665 23.9834 7.02767 24.1499C5.73312 24.327 4.61561 24.4795 3.87736 25.4403C2.17485 27.6683 1.19799 31.1482 1.19799 34.9871C1.19799 35.3181 0.929981 35.5861 0.598994 35.5861Z" fill="#979797"/><path d="M28.5883 35.5863C28.2574 35.5863 27.9894 35.3183 27.9894 34.9873C27.9894 31.1484 27.0125 27.6685 25.3093 25.4391C24.5717 24.4797 23.4542 24.3272 22.1597 24.1501C20.9407 23.9836 19.5594 23.7954 18.5055 22.7856C17.5259 21.8563 17.6042 20.3959 17.6882 18.8495C17.7064 18.5192 17.9905 18.2442 18.3208 18.2519C18.6511 18.2701 18.9065 18.5206 18.8883 18.8509C18.8106 20.2854 18.7518 21.3679 19.3319 21.9186C20.1073 22.6603 21.1828 22.8073 22.322 22.9626C23.6809 23.1488 25.2225 23.3594 26.2603 24.7099C28.1209 27.1458 29.1873 30.8909 29.1873 34.9873C29.1873 35.3183 28.9193 35.5863 28.5883 35.5863Z" fill="#979797"/><path d="M28.5886 35.5863H0.598994C0.268007 35.5863 0 35.3183 0 34.9873C0 34.6563 0.268007 34.3883 0.598994 34.3883H28.5886C28.9196 34.3883 29.1876 34.6563 29.1876 34.9873C29.1876 35.3183 28.9196 35.5863 28.5886 35.5863Z" fill="#979797"/><path d="M14.5915 10.7613C11.6602 10.7613 8.7268 10.495 5.87179 9.96319C5.5464 9.90231 5.33228 9.58952 5.39245 9.26414C5.45333 8.93875 5.76332 8.72567 6.09151 8.7848C11.6574 9.82254 17.5298 9.82219 23.076 8.78515C23.4 8.72322 23.7142 8.93875 23.7751 9.26378C23.836 9.58917 23.6212 9.90196 23.2958 9.96284C20.4512 10.495 17.5228 10.7613 14.5915 10.7613Z" fill="#979797"/><path d="M15.7717 4.97668H13.4156C13.0734 4.97668 12.7571 4.84967 12.5255 4.6191C12.2442 4.3378 12.1315 3.94873 12.2302 3.60341L12.9362 0.836913C13.0692 0.348129 13.5688 0 14.1265 0H15.0607C15.6275 0 16.1159 0.340432 16.2482 0.827813L16.9424 3.62335C17.0382 3.95853 16.9333 4.34725 16.6625 4.61805C16.4315 4.84933 16.1152 4.97668 15.7717 4.97668ZM13.424 3.7703L15.7465 3.778L15.1076 1.20569C15.095 1.20184 15.0789 1.19869 15.0607 1.19869H14.1265C14.1083 1.19869 14.0915 1.20184 14.0789 1.20604L13.424 3.7703Z" fill="#979797"/><path d="M7.22082 9.77001C6.88983 9.77001 6.62183 9.50165 6.62183 9.17066C6.62183 5.06973 9.0101 0.710938 13.4361 0.710938C13.7671 0.710938 14.0351 0.979293 14.0351 1.31028C14.0351 1.64127 13.7671 1.90962 13.4361 1.90962C9.74905 1.90962 7.81981 5.56236 7.81981 9.17066C7.81981 9.50165 7.55181 9.77001 7.22082 9.77001Z" fill="#979797"/><path d="M4.86394 35.5862C4.77157 35.5862 4.6785 35.5652 4.59033 35.5198C4.29643 35.3686 4.18027 35.0075 4.33212 34.7129L6.87085 29.7768C6.97301 29.5774 7.17874 29.4521 7.40336 29.4521H21.7841C22.1151 29.4521 22.3831 29.7202 22.3831 30.0511C22.3831 30.3821 22.1151 30.6501 21.7841 30.6501H7.76933L5.39715 35.2615C5.29149 35.468 5.08156 35.5862 4.86394 35.5862Z" fill="#979797"/><path d="M24.3036 35.5863C24.0853 35.5863 23.8754 35.4673 23.769 35.2595L21.2506 30.3234C21.1001 30.0288 21.2177 29.6677 21.5123 29.5173C21.8055 29.3682 22.1673 29.4844 22.3184 29.779L24.8368 34.7151C24.9873 35.0097 24.8697 35.3708 24.5751 35.5212C24.4884 35.5653 24.3953 35.5863 24.3036 35.5863Z" fill="#979797"/><path d="M21.7834 30.6502C21.5069 30.6502 21.2585 30.4584 21.1984 30.1771L19.7156 23.2915C19.6456 22.9682 19.8513 22.6491 20.1753 22.5799C20.4923 22.5106 20.8177 22.7156 20.887 23.0396L22.3697 29.9252C22.4397 30.2485 22.234 30.5676 21.91 30.6369C21.868 30.646 21.8253 30.6502 21.7834 30.6502Z" fill="#979797"/><path d="M21.9668 9.77001C21.6358 9.77001 21.3678 9.50165 21.3678 9.17066C21.3678 5.56236 19.4386 1.90962 15.7516 1.90962C15.4206 1.90962 15.1526 1.64127 15.1526 1.31028C15.1526 0.979293 15.4206 0.710938 15.7516 0.710938C20.1776 0.710938 22.5658 5.06973 22.5658 9.17066C22.5658 9.50165 22.2978 9.77001 21.9668 9.77001Z" fill="#979797"/><path d="M9.33337 7.82002H7.40344C7.07245 7.82002 6.80444 7.55167 6.80444 7.22068C6.80444 6.88969 7.07245 6.62134 7.40344 6.62134H9.33337C9.66436 6.62134 9.93236 6.88969 9.93236 7.22068C9.93236 7.55167 9.66435 7.82002 9.33337 7.82002Z" fill="#979797"/><path d="M21.7638 7.82002H19.8541C19.5231 7.82002 19.2551 7.55167 19.2551 7.22068C19.2551 6.88969 19.5231 6.62134 19.8541 6.62134H21.7638C22.0947 6.62134 22.3628 6.88969 22.3628 7.22068C22.3628 7.55167 22.0947 7.82002 21.7638 7.82002Z" fill="#979797"/><path d="M7.40426 30.6502C7.36227 30.6502 7.31959 30.646 7.2776 30.6369C6.95361 30.5676 6.74788 30.2485 6.81786 29.9252L8.30065 23.0396C8.36992 22.7156 8.69321 22.5106 9.0123 22.5799C9.33629 22.6491 9.54202 22.9682 9.47204 23.2915L7.98925 30.1771C7.92908 30.4584 7.68066 30.6502 7.40426 30.6502Z" fill="#979797"/><path d="M14.5941 25.1662C12.7377 25.1662 10.9904 24.4161 9.67413 23.0537C9.44461 22.8157 9.45091 22.4365 9.68883 22.2063C9.92675 21.9767 10.3067 21.983 10.5362 22.2209C11.6244 23.3476 13.0659 23.9682 14.5941 23.9682C16.1 23.9682 17.5786 23.3315 18.6513 22.2209C18.8809 21.9823 19.2608 21.9767 19.4987 22.2063C19.7367 22.4365 19.743 22.8157 19.5134 23.0537C18.2161 24.3965 16.4233 25.1662 14.5941 25.1662Z" fill="#979797"/></svg>