<?xml version="1.0" encoding="UTF-8"?>
<svg width="231" height="77" viewBox="0 0 231 77" fill="none" xmlns="http://www.w3.org/2000/svg"><path d="M25.9695 38.5C25.9695 24.2961 31.6162 11.4935 40.8369 1.9635L38.7669 0L0 38.5L38.7669 77L40.7433 75.0365C31.6136 65.5078 25.9683 52.7052 25.9683 38.5H25.9695Z" fill="#0550A1"/><path d="M71.1788 24.1087H67.5085L55.1833 52.8913H60.2654L69.2975 30.6511L78.8005 52.8913H84.1649L71.1775 24.1087H71.1788ZM136.951 24.1087H133.187L122.648 48.6845H120.296V52.7976H150.312V48.6858H147.959L136.951 24.11V24.1087ZM142.785 48.6845H127.73L135.163 30.6511L142.785 48.6858V48.6845ZM114.086 24.1087H110.039L95.0796 44.8538V24.1087H90.6547V52.8913H95.0783L109.567 32.1462V52.8913H114.085V24.1087H114.086ZM172.801 28.3142V24.1087H156.71V52.8913H172.801V48.6858H161.227V40.2761H172.801V36.0707H161.227V28.3142H172.801ZM201.216 35.1364C201.216 34.7617 201.311 34.3882 201.311 34.1084C201.311 33.5476 201.311 32.9868 201.216 32.5197C200.934 30.4638 199.993 28.6876 198.394 27.0989C196.889 25.6038 195.195 24.6695 193.219 24.3898H192.748C192.372 24.2961 191.996 24.2961 191.62 24.2961H181.457V52.9837H185.973V43.9195H192.467C192.654 43.9195 192.843 43.8271 193.03 43.8271C195.006 43.4524 196.794 42.6118 198.299 41.1167C200.087 39.3406 201.029 37.3784 201.216 35.1364ZM192.936 28.594C193.749 28.9027 194.487 29.3808 195.1 29.9966C195.665 30.5575 196.042 31.2107 196.324 31.8652C196.607 32.5197 196.794 33.2666 196.794 34.1084C196.794 34.4806 196.794 34.8553 196.7 35.2288C196.512 36.3504 195.947 37.3784 195.1 38.219C194.468 38.8572 193.695 39.3377 192.843 39.6216L191.713 39.9014H185.973V28.3142H191.902C192.278 28.4079 192.654 28.5016 192.936 28.5952V28.594ZM87.6774 61.6937L88.9941 64.7775C89.1827 65.3384 89.3701 65.8042 89.5587 66.2726C89.6524 65.8992 89.8411 65.4308 90.0297 64.7775L91.0641 61.6937H92.6644L91.0641 65.7105C90.5944 66.8334 90.1234 68.0475 89.5587 68.7957C88.9941 69.4501 88.4294 69.8223 87.5824 69.8223C87.2064 69.8223 87.0177 69.8223 86.8304 69.7299L86.924 68.5146C87.0177 68.5146 87.2064 68.6083 87.395 68.6083C88.0534 68.6083 88.5244 68.0475 88.7117 67.5816C88.8067 67.3943 88.7117 67.2993 88.7117 67.1132L85.9834 61.6H87.6774V61.6937ZM98.8744 63.9357V69.7299H97.4628V65.0586H95.2041V69.7299H93.7924V63.9357H98.8744ZM101.133 65.8055C101.133 65.0573 101.133 64.4028 101.038 63.842H102.356L102.45 64.7775C102.921 64.123 103.579 63.7496 104.426 63.7496C105.743 63.7496 106.872 64.8699 106.872 66.6461C106.872 68.702 105.555 69.7299 104.237 69.7299C103.484 69.7299 102.921 69.4502 102.638 68.9817V71.9719H101.133V65.8055ZM102.638 67.3006V67.674C102.826 68.2348 103.297 68.702 103.955 68.702C104.896 68.702 105.461 67.9551 105.461 66.8334C105.461 65.8055 104.991 64.9636 104.049 64.9636C103.484 64.9636 102.92 65.4308 102.732 66.0853C102.732 66.1789 102.638 66.3663 102.638 66.4587V67.3006ZM113.365 68.3285C113.365 68.8893 113.365 69.3552 113.458 69.7299H112.142L112.048 69.0754C111.671 69.5426 111.106 69.8236 110.354 69.8236C109.225 69.8236 108.566 68.9817 108.566 68.1424C108.566 66.7398 109.883 65.9916 112.048 65.9916V65.8992C112.048 65.5244 111.859 64.8699 110.824 64.8699C110.259 64.8699 109.694 65.0573 109.225 65.3384L108.942 64.4041C109.413 64.123 110.165 63.9357 111.012 63.9357C112.894 63.9357 113.458 65.151 113.458 66.3663V68.3285H113.365ZM111.953 66.8334C110.919 66.8334 109.883 67.0195 109.883 67.9538C109.883 68.5146 110.259 68.7957 110.73 68.7957C111.295 68.7957 111.766 68.4222 111.859 68.0475V66.8334H111.953ZM115.623 64.0294C116.338 63.904 117.062 63.8417 117.787 63.8433C118.728 63.8433 120.515 63.9357 120.515 65.3384C120.515 66.0853 119.951 66.4587 119.292 66.6461C120.139 66.7398 120.704 67.2069 120.704 68.0475C120.704 69.6362 118.634 69.8236 117.411 69.8236C116.658 69.8236 115.906 69.7299 115.528 69.7299V64.0294H115.623ZM117.035 68.7957H117.693C118.352 68.7957 119.199 68.6083 119.199 67.9551C119.199 67.3006 118.54 67.1132 117.598 67.1132H116.94V68.7944H117.034L117.035 68.7957ZM117.129 66.2726H117.693C118.445 66.2726 119.01 66.0853 119.01 65.5244C119.01 65.0573 118.634 64.7775 117.787 64.7775C117.505 64.7775 117.316 64.7775 117.129 64.8699V66.2726ZM127.479 69.7299H125.973V65.0586H124.374V66.2726C124.374 67.7677 124.186 68.7957 123.527 69.2628C123.128 69.5828 122.627 69.7486 122.116 69.7299L121.927 68.6083C122.209 68.6083 122.398 68.4222 122.585 68.3285C123.056 67.9551 123.056 67.3006 123.056 66.1789V63.8433H127.479V69.7299ZM134.536 69.7299H133.03V67.4867H132.466C132.09 67.4867 131.807 67.674 131.525 67.8614C131.148 68.1412 131.054 68.7957 130.867 69.2628C130.772 69.4502 130.678 69.5426 130.584 69.7299H128.984C129.078 69.5426 129.266 69.3565 129.36 69.0754C129.549 68.6083 129.737 67.8614 130.207 67.3943C130.396 67.2069 130.584 67.1132 130.867 67.0195C130.207 66.9271 129.36 66.4587 129.36 65.6181C129.36 64.9636 129.737 64.5915 130.207 64.3091C130.678 64.0294 131.525 63.937 132.277 63.937C133.124 63.937 133.782 64.0294 134.347 64.0294V69.7299H134.536ZM133.03 64.7763C132.842 64.7763 132.654 64.6839 132.277 64.6839C131.619 64.6839 130.96 64.8699 130.96 65.5244C130.96 66.0853 131.712 66.3663 132.277 66.3663H133.03V64.7775V64.7763ZM138.205 63.9357V66.1789H139.052C139.334 64.6839 140.276 63.7496 141.686 63.7496C143.287 63.7496 144.321 64.9636 144.321 66.7398C144.321 68.702 143.098 69.8236 141.593 69.8236C140.181 69.8236 139.147 68.8893 138.958 67.3006H138.111V69.7299H136.699V63.9357H138.205ZM141.686 68.7957C142.533 68.7957 142.909 67.8614 142.909 66.8322C142.909 65.8992 142.533 64.8699 141.686 64.8699C140.839 64.8699 140.463 65.8055 140.463 66.8334C140.463 67.8601 140.839 68.7957 141.686 68.7957ZM147.803 63.9357V68.6083H149.497V63.937H150.909V68.6083H152.601V63.937H154.108V68.6083L154.766 68.702L154.671 71.5048H153.543L153.448 69.7299H146.297V63.9357H147.803ZM161.07 68.3285C161.07 68.8893 161.07 69.3552 161.164 69.7299H159.847L159.753 69.0754C159.376 69.5426 158.811 69.8236 158.059 69.8236C156.93 69.8236 156.272 68.9817 156.272 68.1424C156.272 66.7398 157.588 65.9916 159.753 65.9916V65.8992C159.753 65.5244 159.565 64.8699 158.53 64.8699C157.966 64.8699 157.401 65.0573 156.93 65.3384L156.648 64.4041C157.119 64.123 157.871 63.9357 158.718 63.9357C160.6 63.9357 161.07 65.151 161.07 66.3663V68.3285ZM159.565 66.8334C158.53 66.8334 157.495 67.0195 157.495 67.9538C157.495 68.5146 157.871 68.7957 158.342 68.7957C158.906 68.7957 159.376 68.4222 159.471 68.0475V66.8334H159.565ZM168.033 69.7299H166.622V67.4867H166.057C165.681 67.4867 165.399 67.674 165.116 67.8614C164.74 68.1412 164.645 68.7957 164.458 69.2628C164.363 69.4502 164.269 69.5426 164.176 69.7299H162.575C162.67 69.5426 162.858 69.3565 162.953 69.0754C163.14 68.6083 163.329 67.8614 163.798 67.3943C163.987 67.2069 164.176 67.1132 164.458 67.0195C163.798 66.9271 162.953 66.4587 162.953 65.6181C162.953 64.9636 163.329 64.5915 163.798 64.3091C164.269 64.0294 165.116 63.937 165.868 63.937C166.715 63.937 167.375 64.0294 167.94 64.0294V69.7299H168.033ZM166.622 64.7763C166.433 64.7763 166.246 64.6839 165.868 64.6839C165.21 64.6839 164.552 64.8699 164.552 65.5244C164.552 66.0853 165.305 66.3663 165.868 66.3663H166.622V64.7775V64.7763ZM174.995 63.9357V66.3663H175.184L176.972 63.9357H178.759L176.407 66.4587C177.16 66.5524 177.725 67.2069 178.101 68.1412C178.29 68.6083 178.477 69.1691 178.759 69.7299H177.254C177.067 69.4502 176.972 69.0754 176.689 68.5146C176.407 67.7677 175.937 67.3006 175.184 67.3006H174.995V69.7299H173.49V63.9357H174.995ZM182.712 69.8236C181.112 69.8236 179.795 68.702 179.795 66.8334C179.795 64.9636 181.018 63.7496 182.806 63.7496C184.5 63.7496 185.723 64.9636 185.723 66.7398C185.723 68.8893 184.217 69.8236 182.712 69.8236ZM182.806 68.7957C183.653 68.7957 184.217 67.9551 184.217 66.8322C184.217 65.8992 183.841 64.8699 182.806 64.8699C181.771 64.8699 181.394 65.8979 181.394 66.8334C181.394 67.9538 181.959 68.7957 182.806 68.7957ZM187.793 63.9357H189.674L190.521 66.4587C190.616 66.8334 190.803 67.4867 190.992 67.9551C191.086 67.5803 191.368 66.7398 191.557 66.1789L192.309 63.9357H194.191L194.568 69.7299H193.156L193.062 67.2069C193.062 66.6461 192.968 65.8979 192.968 65.151C192.78 65.8055 192.686 66.0853 192.404 67.0195L191.462 69.6375H190.427L189.58 67.1132C189.392 66.5524 189.204 65.7118 189.016 65.151C189.016 65.8979 189.016 66.6461 188.922 67.2069L188.827 69.7299H187.51L187.793 63.9357ZM201.625 63.9357V69.7299H200.213V65.0586H197.956V69.7299H196.544V63.9357H201.625ZM208.399 68.3285C208.399 68.8893 208.399 69.3552 208.493 69.7299H207.176L207.083 69.0754C206.705 69.5426 206.141 69.8236 205.389 69.8236C204.259 69.8236 203.601 68.9817 203.601 68.1424C203.601 66.7398 204.918 65.9916 207.083 65.9916V65.8992C207.083 65.5244 206.894 64.8699 205.858 64.8699C205.294 64.8699 204.73 65.0573 204.259 65.3384L203.977 64.4041C204.448 64.123 205.2 63.9357 206.047 63.9357C207.928 63.9357 208.493 65.151 208.493 66.3663V68.3285H208.399ZM206.988 66.8334C205.953 66.8334 204.918 67.0195 204.918 67.9538C204.918 68.5146 205.294 68.7957 205.765 68.7957C206.329 68.7957 206.8 68.4222 206.894 68.0475V66.8334H206.988ZM212.163 63.9357V66.0853H214.421V63.9357H215.832V69.7299H214.421V67.3006H212.163V69.7299H210.658V63.9357H212.163ZM219.503 63.9357V65.9916C219.503 66.9271 219.503 67.4867 219.408 68.3272H219.503C219.785 67.674 219.972 67.2069 220.255 66.6461L221.666 63.9357H223.454V69.7299H222.042V67.674C222.042 66.7398 222.042 66.365 222.137 65.2447H222.042C221.76 65.8992 221.573 66.3663 221.29 66.9258C220.819 67.7677 220.35 68.7957 219.785 69.7299H217.997V63.9357H219.503ZM230.511 69.7299H229.099V67.4867H228.535C228.159 67.4867 227.876 67.674 227.594 67.8614C227.218 68.1412 227.124 68.7957 226.842 69.2628C226.747 69.4502 226.747 69.5426 226.56 69.7299H224.959C225.054 69.5426 225.242 69.3565 225.337 69.0754C225.524 68.6083 225.806 67.8614 226.182 67.3943C226.371 67.2069 226.56 67.1132 226.842 67.0195C226.182 66.9271 225.337 66.4587 225.337 65.6181C225.337 64.9636 225.713 64.5915 226.182 64.3091C226.653 64.0294 227.5 63.937 228.252 63.937C229.099 63.937 229.759 64.0294 230.324 64.0294V69.7299H230.511ZM229.006 64.7763C228.817 64.7763 228.63 64.6839 228.252 64.6839C227.594 64.6839 226.936 64.8699 226.936 65.5244C226.936 66.0853 227.689 66.3663 228.252 66.3663H229.006V64.7775V64.7763Z" fill="#0F140E"/></svg>