<svg width="231" height="60" viewBox="0 0 231 60" fill="none" xmlns="http://www.w3.org/2000/svg"><path fill-rule="evenodd" clip-rule="evenodd" d="M141.439 21.6418H136.374V10.6673C136.374 9.20919 136.067 8.28825 135.607 7.6743C135.146 7.06035 134.302 6.75337 133.228 6.75337C131.769 6.75337 130.695 7.21385 130.081 8.21152C129.467 9.20919 129.083 10.7441 129.083 12.9697V21.872H124.018V2.91616H128.009L128.776 5.29524H129.083C129.697 4.37431 130.542 3.68361 131.462 3.22315C132.46 2.76268 133.688 2.60919 134.993 2.60919C137.218 2.60919 138.83 3.22315 139.904 4.37431C140.979 5.52547 141.516 7.21384 141.516 9.43942V21.6418H141.439Z" fill="#231F20"/><path fill-rule="evenodd" clip-rule="evenodd" d="M152.567 6.06291C151.416 6.06291 150.649 6.36988 150.035 7.13732C149.421 7.90476 149.037 8.90243 148.884 9.97685H156.021C156.021 8.6722 155.714 7.75127 155.1 7.13732C154.486 6.36988 153.642 6.06291 152.567 6.06291ZM153.181 21.949C150.188 21.949 147.732 21.1815 146.044 19.4164C144.279 17.6513 143.511 15.4257 143.511 12.2792C143.511 9.13267 144.279 6.7536 145.891 4.98848C147.502 3.22337 149.728 2.45593 152.414 2.45593C155.1 2.45593 157.172 3.22337 158.63 4.68151C160.088 6.29314 160.856 8.36523 160.856 11.0513V13.5838H148.73C148.73 15.042 149.191 16.1164 150.035 17.0373C150.802 17.8048 151.953 18.2652 153.411 18.2652C154.563 18.2652 155.637 18.1117 156.635 17.9583C157.556 17.8048 158.707 17.3443 159.781 16.8838V20.721C158.784 21.1815 157.863 21.4885 156.942 21.642C155.867 21.7955 154.793 21.949 153.181 21.949Z" fill="#231F20"/><path fill-rule="evenodd" clip-rule="evenodd" d="M179.888 21.6419H174.823V10.6674C174.823 9.20931 174.67 8.28837 174.209 7.67442C173.749 7.06046 173.135 6.67675 171.984 6.67675C170.679 6.67675 169.758 7.13721 169.144 8.13489C168.53 9.05582 168.146 10.6674 168.146 12.893V21.7954H163.081V2.83954H167.072L167.686 5.2186H167.993C168.453 4.45116 169.298 3.60698 170.218 3.14651C171.139 2.68605 172.291 2.37907 173.519 2.37907C176.358 2.37907 178.277 3.3 179.198 5.06512H179.658C180.119 4.14419 180.963 3.45349 181.884 2.99303C182.881 2.53256 183.956 2.22559 185.184 2.22559C187.256 2.22559 189.021 2.68604 189.942 3.83721C191.093 4.91163 191.553 6.67674 191.553 9.05581V21.3349H186.488V10.6674C186.488 9.20931 186.335 8.28837 185.874 7.67442C185.414 7.06046 184.723 6.67675 183.649 6.67675C182.344 6.67675 181.423 7.13721 180.809 7.9814C180.195 8.97907 179.888 10.3605 179.888 12.2791V21.6419Z" fill="#231F20"/><path fill-rule="evenodd" clip-rule="evenodd" d="M205.291 12.8931H203.219C201.76 12.8931 200.686 13.2001 199.842 13.6605C199.074 14.121 198.691 14.8885 198.691 15.8861C198.691 17.3443 199.458 18.1117 201.223 18.1117C202.374 18.1117 203.295 17.8047 204.063 17.1908C204.677 16.5768 205.214 15.5792 205.214 14.5047V12.8931H205.291ZM206.749 21.6419L205.751 19.1094H205.598C204.83 20.1838 203.833 21.028 202.912 21.335C201.914 21.7954 200.84 21.9489 199.228 21.9489C197.463 21.9489 196.005 21.4884 194.93 20.3373C193.856 19.2629 193.319 17.8047 193.319 15.8861C193.319 13.814 193.933 12.3559 195.391 11.435C196.849 10.514 198.921 9.97682 201.76 9.82333L205.06 9.66985V9.05589C205.06 7.13729 204.14 6.21636 202.221 6.21636C200.763 6.21636 198.844 6.67682 196.926 7.67449L195.16 4.14427C197.386 3.06985 199.765 2.37915 202.298 2.37915C204.83 2.37915 206.749 2.83962 208.207 3.99078C209.665 5.0652 210.279 6.67682 210.279 9.05589V21.5652H206.749V21.6419Z" fill="#231F20"/><path fill-rule="evenodd" clip-rule="evenodd" d="M230.923 21.6418H225.858V10.6673C225.858 9.20919 225.551 8.28825 225.091 7.6743C224.63 7.06035 223.786 6.75337 222.712 6.75337C221.253 6.75337 220.179 7.21385 219.565 8.21152C218.951 9.20919 218.567 10.7441 218.567 12.9697V21.872H213.502V2.91616H217.493L218.107 5.29524H218.414C219.028 4.37431 219.872 3.68361 220.793 3.22315C221.791 2.76268 223.018 2.60919 224.323 2.60919C226.549 2.60919 228.16 3.22315 229.235 4.37431C230.309 5.52547 231 7.21384 231 9.43942V21.6418H230.923Z" fill="#231F20"/><path fill-rule="evenodd" clip-rule="evenodd" d="M127.779 38.3722C127.779 39.2931 127.932 40.2908 128.393 40.7513C128.853 41.3652 129.467 41.6722 130.465 41.6722C131.463 41.6722 132.23 41.3652 132.537 40.7513C132.998 40.1373 133.151 39.2931 133.151 38.3722C133.151 36.1466 132.153 35.0722 130.311 35.0722C128.7 34.9955 127.779 36.1466 127.779 38.3722ZM126.014 53.721C126.014 54.335 126.321 55.0257 127.011 55.3327C127.625 55.7931 128.623 55.9466 129.851 55.9466C131.77 55.9466 133.151 55.6397 134.149 55.1792C135.3 54.7187 135.76 53.9513 135.76 53.1071C135.76 52.4931 135.453 51.8792 134.839 51.6489C134.225 51.342 133.228 51.1885 132 51.1885H129.314C128.316 51.1885 127.549 51.342 126.935 51.8024C126.321 52.3396 126.014 52.9536 126.014 53.721ZM140.442 32.1559V34.6885L137.449 35.4559C137.909 36.2234 138.216 37.221 138.216 38.2955C138.216 40.3676 137.602 41.9792 136.144 43.0536C134.686 44.128 132.844 44.8187 130.235 44.8187H129.237L128.623 44.6652C128.163 45.1257 127.856 45.4327 127.856 45.8931C127.856 46.6606 128.777 46.9676 130.695 46.9676H133.842C135.914 46.9676 137.525 47.428 138.6 48.2722C139.751 49.1931 140.212 50.4978 140.212 52.2629C140.212 54.4885 139.291 56.2536 137.525 57.328C135.607 58.6327 133.074 59.0931 129.544 59.0931C126.858 59.0931 124.939 58.6327 123.481 57.635C122.023 56.6373 121.409 55.4094 121.409 53.7978C121.409 52.7234 121.716 51.7257 122.56 50.9583C123.328 50.1908 124.325 49.6536 125.707 49.3466C125.246 49.1931 124.786 48.7327 124.249 48.1955C123.942 47.735 123.635 47.121 123.635 46.5838C123.635 45.8164 123.788 45.2792 124.249 44.8187C124.709 44.3583 125.17 43.8978 126.014 43.3606C125.093 42.9001 124.249 42.2094 123.635 41.2885C123.021 40.2908 122.867 39.2164 122.867 37.9117C122.867 35.8397 123.481 34.228 124.939 33.1536C126.244 32.0024 128.086 31.3885 130.695 31.3885C131.156 31.3885 131.846 31.3885 132.614 31.542C133.381 31.6955 133.765 31.6955 134.072 31.6955H140.442V32.1559Z" fill="#231F20"/><path fill-rule="evenodd" clip-rule="evenodd" d="M152.107 31.7721C152.721 31.7721 153.412 31.7721 153.872 31.9256L153.565 36.6837C153.105 36.5302 152.567 36.5302 151.953 36.5302C150.342 36.5302 149.114 36.9907 148.116 37.8349C147.119 38.6023 146.658 39.907 146.658 41.3651V50.8814H141.593V32.1558H145.43L146.198 35.3023H146.505C147.119 34.2279 147.963 33.3837 148.884 32.7698C149.881 32.1558 150.802 31.7721 152.107 31.7721Z" fill="#231F20"/><path fill-rule="evenodd" clip-rule="evenodd" d="M159.244 41.5186C159.244 43.4372 159.551 44.8954 160.165 45.8163C160.779 46.7372 161.777 47.2744 163.158 47.2744C164.616 47.2744 165.537 46.814 166.151 45.8163C166.765 44.8186 167.072 43.4372 167.072 41.5186C167.072 39.6 166.765 38.1419 166.151 37.3744C165.537 36.3767 164.539 35.9163 163.158 35.9163C161.7 35.9163 160.779 36.3767 160.165 37.3744C159.551 38.2954 159.244 39.7535 159.244 41.5186ZM172.214 41.5186C172.214 44.5116 171.446 46.8907 169.835 48.6558C168.223 50.4209 165.998 51.1884 163.005 51.1884C161.239 51.1884 159.705 50.8814 158.246 50.0372C156.788 49.2698 155.867 48.1186 155.1 46.6605C154.332 45.2023 153.949 43.5139 153.949 41.4419C153.949 38.4488 154.716 36.0698 156.328 34.3047C157.939 32.5395 160.165 31.7721 163.158 31.7721C164.923 31.7721 166.535 32.0791 167.916 32.9233C169.374 33.6907 170.295 34.8419 171.063 36.3C171.907 37.8349 172.214 39.6 172.214 41.5186Z" fill="#231F20"/><path fill-rule="evenodd" clip-rule="evenodd" d="M187.639 51.0348L187.026 48.6557H186.719C186.258 49.5767 185.414 50.2673 184.339 50.7278C183.419 51.1883 182.114 51.4953 180.886 51.4953C178.66 51.4953 177.049 50.8813 175.974 49.7301C174.9 48.579 174.209 46.8906 174.209 44.665V32.4627H179.274V43.4371C179.274 44.8953 179.581 45.8162 180.042 46.4301C180.502 47.0441 181.346 47.3511 182.421 47.3511C183.879 47.3511 184.953 46.8906 185.567 45.8929C186.181 44.972 186.488 43.3604 186.488 41.1348V32.3092H191.553V51.0348H187.639Z" fill="#231F20"/><path fill-rule="evenodd" clip-rule="evenodd" d="M203.909 35.9929C202.681 35.9929 201.684 36.2999 201.223 37.0674C200.609 37.8348 200.302 39.1395 200.302 40.9046V41.365C200.302 43.4371 200.609 44.8185 201.223 45.6627C201.837 46.4301 202.835 46.8906 204.063 46.8906C206.288 46.8906 207.593 44.972 207.593 41.2116C207.593 39.2929 207.286 38.065 206.826 37.0674C205.981 36.4534 204.984 35.9929 203.909 35.9929ZM205.291 51.3418C203.065 51.3418 201.3 50.5743 200.072 48.9627H199.765C199.919 50.5743 200.072 51.4953 200.072 51.6488V59.2464H195.007V32.079H199.151L199.919 34.4581H200.072C201.377 32.5395 203.065 31.6185 205.444 31.6185C207.67 31.6185 209.435 32.386 210.663 34.1511C211.968 35.9162 212.581 38.2953 212.581 41.2883C212.581 43.3604 212.274 45.1255 211.661 46.5069C211.047 47.965 210.202 49.0395 209.128 49.8069C208.054 50.7278 206.902 51.3418 205.291 51.3418Z" fill="#231F20"/><path fill-rule="evenodd" clip-rule="evenodd" d="M85.8 52.2628H100.074L104.679 31.6186L109.591 8.90233C111.816 0.844191 104.833 0 102.914 0H0L3.37676 5.06512C5.75583 8.74884 9.90001 10.9744 14.3512 10.9744H94.9326L85.8 52.2628Z" fill="#F2632B"/><path fill-rule="evenodd" clip-rule="evenodd" d="M60.7046 40.9047L63.5441 45.0489C65.9232 48.5024 69.9139 50.5745 74.2115 50.5745H81.1952L83.2674 40.9047H60.7046Z" fill="#FBAC18"/><path fill-rule="evenodd" clip-rule="evenodd" d="M51.4956 28.6255L54.3351 32.7697C56.7142 36.2999 60.7049 38.372 65.0026 38.372H83.8816L85.9537 28.6255H51.4956Z" fill="#F78E20"/><path fill-rule="evenodd" clip-rule="evenodd" d="M42.3628 16.2698L45.2023 20.414C47.5814 23.8674 51.5721 25.9395 55.7163 25.9395H86.414L88.486 16.2698H42.3628Z" fill="#F47B26"/></svg>