<svg width="378" height="252" viewBox="0 0 378 252" fill="none" xmlns="http://www.w3.org/2000/svg"><path d="M1 239V111H127" stroke="#E0E0E0" stroke-width="2"/><path d="M44 111L401 111" stroke="#F2632B" stroke-width="2"/><circle cx="168" cy="109" r="62" fill="#FAFAFA"/><g filter="url(#filter0_dddddd)"><circle cx="168.08" cy="108.746" r="45.3989" fill="white"/></g><path d="M181.293 105.635H159.661V106.762C159.661 108.249 160.942 109.467 162.507 109.467H180.487L181.293 105.635Z" fill="#F47B26"/><path d="M164.975 110.955V112.082C164.975 113.569 166.255 114.787 167.821 114.787H179.301L180.155 111H164.975V110.955Z" fill="#F78E20"/><path d="M170.285 117.356C170.285 118.844 171.566 120.061 173.132 120.061H178.065L178.919 116.274H170.285V117.356Z" fill="#FBAC18"/><path d="M187.365 100.946C186.891 100.36 186.179 100.045 185.42 100.045H148.702V101.127C148.702 102.569 149.936 103.741 151.454 103.741H183.712L180.06 120.017H184.044L187.887 102.975C188.029 102.254 187.84 101.487 187.365 100.946Z" fill="#F2632B"/><defs><filter id="filter0_dddddd" x="42.6807" y="0.34668" width="250.798" height="250.798" filterUnits="userSpaceOnUse" color-interpolation-filters="sRGB"><feFlood flood-opacity="0" result="BackgroundImageFix"/><feColorMatrix in="SourceAlpha" type="matrix" values="0 0 0 0 0 0 0 0 0 0 0 0 0 0 0 0 0 0 127 0"/><feOffset dy="0.470434"/><feGaussianBlur stdDeviation="1.1069"/><feColorMatrix type="matrix" values="0 0 0 0 0 0 0 0 0 0 0 0 0 0 0 0 0 0 0.01 0"/><feBlend mode="normal" in2="BackgroundImageFix" result="effect1_dropShadow"/><feColorMatrix in="SourceAlpha" type="matrix" values="0 0 0 0 0 0 0 0 0 0 0 0 0 0 0 0 0 0 127 0"/><feOffset dy="1.13052"/><feGaussianBlur stdDeviation="2.66004"/><feColorMatrix type="matrix" values="0 0 0 0 0 0 0 0 0 0 0 0 0 0 0 0 0 0 0.01 0"/><feBlend mode="normal" in2="effect1_dropShadow" result="effect2_dropShadow"/><feColorMatrix in="SourceAlpha" type="matrix" values="0 0 0 0 0 0 0 0 0 0 0 0 0 0 0 0 0 0 127 0"/><feOffset dy="2.12866"/><feGaussianBlur stdDeviation="5.00862"/><feColorMatrix type="matrix" values="0 0 0 0 0 0 0 0 0 0 0 0 0 0 0 0 0 0 0.01 0"/><feBlend mode="normal" in2="effect2_dropShadow" result="effect3_dropShadow"/><feColorMatrix in="SourceAlpha" type="matrix" values="0 0 0 0 0 0 0 0 0 0 0 0 0 0 0 0 0 0 127 0"/><feOffset dy="3.79717"/><feGaussianBlur stdDeviation="8.93452"/><feColorMatrix type="matrix" values="0 0 0 0 0 0 0 0 0 0 0 0 0 0 0 0 0 0 0.0119221 0"/><feBlend mode="normal" in2="effect3_dropShadow" result="effect4_dropShadow"/><feColorMatrix in="SourceAlpha" type="matrix" values="0 0 0 0 0 0 0 0 0 0 0 0 0 0 0 0 0 0 127 0"/><feOffset dy="7.10219"/><feGaussianBlur stdDeviation="16.711"/><feColorMatrix type="matrix" values="0 0 0 0 0 0 0 0 0 0 0 0 0 0 0 0 0 0 0.0143771 0"/><feBlend mode="normal" in2="effect4_dropShadow" result="effect5_dropShadow"/><feColorMatrix in="SourceAlpha" type="matrix" values="0 0 0 0 0 0 0 0 0 0 0 0 0 0 0 0 0 0 127 0"/><feOffset dy="17"/><feGaussianBlur stdDeviation="40"/><feColorMatrix type="matrix" values="0 0 0 0 0 0 0 0 0 0 0 0 0 0 0 0 0 0 0.02 0"/><feBlend mode="normal" in2="effect5_dropShadow" result="effect6_dropShadow"/><feBlend mode="normal" in="SourceGraphic" in2="effect6_dropShadow" result="shape"/></filter></defs></svg>