<svg width="44" height="42" viewBox="0 0 44 42" fill="none" xmlns="http://www.w3.org/2000/svg"><path d="M21.8819 10.0566C15.3785 10.0566 10.1758 15.3185 10.1758 21.7627C10.1758 25.31 11.7721 28.5026 14.196 30.631C14.196 30.631 17.3886 33.4688 17.3886 37.1935" stroke="#979797" stroke-width="1.5" stroke-miterlimit="10"/><path d="M22.4731 41.2136H19.1031C18.1572 41.2136 17.3886 40.445 17.3886 39.4991V37.1934" stroke="#979797" stroke-width="1.5" stroke-miterlimit="10"/><path d="M21.7636 10.0566C28.267 10.0566 33.4697 15.3185 33.4697 21.7627C33.4697 25.31 31.8734 28.5026 29.4494 30.631C29.4494 30.631 26.2569 33.4688 26.2569 37.1935" stroke="#979797" stroke-width="1.5" stroke-miterlimit="10"/><path d="M21.1724 41.2136H24.5423C25.4882 41.2136 26.2568 40.445 26.2568 39.4991V37.1934" stroke="#979797" stroke-width="1.5" stroke-miterlimit="10"/><path d="M16.9156 35.0059H26.6116" stroke="#979797" stroke-width="1.5" stroke-miterlimit="10"/><path d="M21.8817 5.14973V0.301758" stroke="#979797" stroke-width="1.5" stroke-miterlimit="10"/><path d="M5.15038 21.5859H0.361511" stroke="#979797" stroke-width="1.5" stroke-miterlimit="10"/><path d="M43.5795 21.5859H38.7906" stroke="#979797" stroke-width="1.5" stroke-miterlimit="10"/><path d="M10.1166 9.99786L6.7467 6.62793" stroke="#979797" stroke-width="1.5" stroke-miterlimit="10"/><path d="M33.5288 9.99786L36.9579 6.62793" stroke="#979797" stroke-width="1.5" stroke-miterlimit="10"/><path d="M33.5288 33.3506L36.9579 36.7205" stroke="#979797" stroke-width="1.5" stroke-miterlimit="10"/><path d="M10.1166 33.3506L6.7467 36.7205" stroke="#979797" stroke-width="1.5" stroke-miterlimit="10"/></svg>