<svg width="44" height="44" viewBox="0 0 44 44" fill="none" xmlns="http://www.w3.org/2000/svg"><path d="M27.3209 5.38672L43.1655 9.46611L39.3226 23.7144L33.8243 22.4137C34.9476 24.01 34.5337 26.1975 32.9375 27.3208C31.3412 28.4441 29.1537 28.0303 28.0304 26.434C26.9071 24.8377 27.3209 22.6502 28.9172 21.5269L23.6554 20.2854" stroke="#979797" stroke-width="1.5" stroke-miterlimit="10" stroke-linejoin="round"/><path d="M5.44586 16.6786L9.52527 0.833984L23.7736 4.67689L22.4729 10.1752C24.0692 9.05189 26.2567 9.46574 27.38 11.062C28.5033 12.6583 28.0895 14.8458 26.4932 15.9691C24.8969 17.0924 22.7094 16.6786 21.5861 15.0823L20.3445 20.3441" stroke="#979797" stroke-width="1.5" stroke-miterlimit="10" stroke-linejoin="round"/><path d="M16.6199 38.5536L0.77533 34.4742L4.61823 20.2259L10.1165 21.5266C8.99323 19.9303 9.40708 17.7428 11.0034 16.6195C12.5996 15.4962 14.7871 15.9101 15.9105 17.5063C17.0338 19.1026 16.6199 21.2901 15.0236 22.4134L20.2855 23.655" stroke="#979797" stroke-width="1.5" stroke-miterlimit="10" stroke-linejoin="round"/><path d="M38.554 27.2612L34.4746 43.1058L20.2263 39.2629L21.527 33.7646C19.9307 34.8879 17.7432 34.4741 16.6199 32.8778C15.4966 31.2815 15.9104 29.094 17.5067 27.9707C19.103 26.8474 21.2905 27.2612 22.4138 28.8575L23.6554 23.5957" stroke="#979797" stroke-width="1.5" stroke-miterlimit="10" stroke-linejoin="round"/></svg>