<svg width="42" height="43" viewBox="0 0 42 43" fill="none" xmlns="http://www.w3.org/2000/svg"><path d="M16.6248 13.4854H8.34776C4.97783 13.4854 2.25824 16.2049 2.25824 19.5158V21.2303H22.6552V19.5158C22.7143 16.2049 19.9947 13.4854 16.6248 13.4854Z" stroke="#979797" stroke-width="1.5" stroke-miterlimit="10"/><path d="M12.4862 13.3086C15.7188 13.3086 18.3393 10.6881 18.3393 7.45558C18.3393 4.22304 15.7188 1.60254 12.4862 1.60254C9.25369 1.60254 6.63318 4.22304 6.63318 7.45558C6.63318 10.6881 9.25369 13.3086 12.4862 13.3086Z" stroke="#979797" stroke-width="1.5" stroke-miterlimit="10"/><path d="M22.7144 21.2908H38.559V19.4581C38.559 16.2064 35.8985 13.5459 32.6468 13.5459H24.0151C22.5961 13.5459 21.3546 14.0189 20.2904 14.8466" stroke="#979797" stroke-width="1.5" stroke-miterlimit="10"/><path d="M28.3309 13.3086C31.5635 13.3086 34.184 10.6881 34.184 7.45558C34.184 4.22304 31.5635 1.60254 28.3309 1.60254C25.0984 1.60254 22.4779 4.22304 22.4779 7.45558C22.4779 10.6881 25.0984 13.3086 28.3309 13.3086Z" stroke="#979797" stroke-width="1.5" stroke-miterlimit="10"/><path d="M40.8647 21.29H0.780273V26.4927H40.8647V21.29Z" stroke="#979797" stroke-width="1.5" stroke-miterlimit="10"/><path d="M38.027 26.4336H3.61816V41.3322H38.027V26.4336Z" stroke="#979797" stroke-width="1.5" stroke-miterlimit="10"/><path d="M17.4526 30.9863H8.3479V36.7802H17.4526V30.9863Z" stroke="#979797" stroke-width="1.5" stroke-miterlimit="10"/><path d="M33.238 30.9863H24.1333V36.7802H33.238V30.9863Z" stroke="#979797" stroke-width="1.5" stroke-miterlimit="10"/></svg>