<svg width="41" height="41" viewBox="0 0 41 41" fill="none" xmlns="http://www.w3.org/2000/svg"><path d="M22.7196 32.937C28.5643 32.937 33.3024 28.199 33.3024 22.3543C33.3024 16.5096 28.5643 11.7715 22.7196 11.7715C16.8749 11.7715 12.1368 16.5096 12.1368 22.3543C12.1368 28.199 16.8749 32.937 22.7196 32.937Z" stroke="#979797" stroke-width="1.5" stroke-miterlimit="10"/><path d="M30.6418 30.1592L39.8648 39.3822" stroke="#979797" stroke-width="1.5" stroke-miterlimit="10"/><path d="M31.2922 10.589V2.48931C31.2922 1.66161 30.6419 0.952148 29.755 0.952148H10.7179C10.304 0.952148 9.9493 1.12951 9.65369 1.42512L1.7314 9.34742C1.43579 9.64303 1.25842 9.99776 1.25842 10.4116V38.2579C1.25842 39.0856 1.90876 39.7951 2.79559 39.7951H29.755C30.5827 39.7951 31.2922 39.1447 31.2922 38.2579V35.6565" stroke="#979797" stroke-width="1.5" stroke-miterlimit="10"/><path d="M11.6047 4.2041V11.2987H4.56921" stroke="#979797" stroke-width="1.5" stroke-miterlimit="10"/><path d="M8.41214 18.8076H4.62836" stroke="#979797" stroke-width="1.5" stroke-miterlimit="10"/><path d="M8.41214 25.4883H4.62836" stroke="#979797" stroke-width="1.5" stroke-miterlimit="10"/><path d="M12.5507 32.4053H4.62836" stroke="#979797" stroke-width="1.5" stroke-miterlimit="10"/></svg>