<svg width="41" height="41" viewBox="0 0 41 41" fill="none" xmlns="http://www.w3.org/2000/svg"><path d="M29.7551 32.938C35.208 32.938 39.6284 28.5176 39.6284 23.0647C39.6284 17.6118 35.208 13.1914 29.7551 13.1914C24.3022 13.1914 19.8818 17.6118 19.8818 23.0647C19.8818 28.5176 24.3022 32.938 29.7551 32.938Z" stroke="#979797" stroke-width="1.5" stroke-miterlimit="10"/><path d="M31.2922 10.5899V2.49028C31.2922 1.66258 30.6419 0.953125 29.7551 0.953125H10.6587C10.2449 0.953125 9.89017 1.13048 9.59456 1.42609L1.73139 9.28927C1.43578 9.58488 1.25842 9.93961 1.25842 10.3535V38.1997C1.25842 39.0274 1.90875 39.7369 2.79557 39.7369H29.7551C30.5828 39.7369 31.2922 39.0866 31.2922 38.1997V35.5984" stroke="#979797" stroke-width="1.5" stroke-miterlimit="10"/><path d="M11.5456 4.20508V11.2997H4.51013" stroke="#979797" stroke-width="1.5" stroke-miterlimit="10"/><path d="M11.4273 18.748H4.62836" stroke="#979797" stroke-width="1.5" stroke-miterlimit="10"/><path d="M11.4273 25.4883H4.62836" stroke="#979797" stroke-width="1.5" stroke-miterlimit="10"/><path d="M18.8767 32.3457H4.62836" stroke="#979797" stroke-width="1.5" stroke-miterlimit="10"/><path d="M27.3309 25.3708V26.9079C27.3309 27.2035 27.5674 27.44 27.863 27.44H32.1198C32.4154 27.44 32.6519 27.2035 32.6519 26.9079V23.8927C32.6519 23.5971 32.4154 23.3606 32.1198 23.3606H27.863C27.5674 23.3606 27.3309 23.1242 27.3309 22.8285V19.8133C27.3309 19.5177 27.5674 19.2812 27.863 19.2812H32.1198C32.4154 19.2812 32.6519 19.5177 32.6519 19.8133V21.5279" stroke="#979797" stroke-width="1.5" stroke-miterlimit="10"/><path d="M30.0506 16.9746V19.576" stroke="#979797" stroke-width="1.5" stroke-miterlimit="10"/><path d="M30.0506 27.084V29.6853" stroke="#979797" stroke-width="1.5" stroke-miterlimit="10"/></svg>