<svg width="36" height="35" viewBox="0 0 36 35" fill="none" xmlns="http://www.w3.org/2000/svg"><path d="M0.43336 33.3554C0.445191 33.5151 0.486602 33.6808 0.501392 33.6808L0.502871 33.6793C0.51766 33.7488 0.563508 33.91 0.625624 34.0283C0.71732 34.2014 0.825284 34.3197 0.847468 34.3359C0.884442 34.3848 0.979095 34.4853 1.04565 34.5474C1.16249 34.648 1.29855 34.7338 1.3651 34.753C1.43905 34.8003 1.55737 34.858 1.64906 34.8906C1.86943 34.9645 2.08536 35 2.32495 35H33.9096C34.1521 35 34.3681 34.966 34.5899 34.8891C34.6742 34.8595 34.7955 34.8018 34.7851 34.7974C34.9389 34.7323 35.0735 34.6465 35.2111 34.5267C35.2554 34.4853 35.3442 34.3907 35.3397 34.3907C35.4122 34.3182 35.5202 34.1999 35.6104 34.0283C35.674 33.907 35.7169 33.7606 35.6888 33.8109C35.7479 33.6882 35.7908 33.5166 35.8041 33.3377C36.0363 28.2826 32.5208 24.0039 31.7873 23.6564C31.0567 23.3044 25.4869 21.2679 22.7508 20.2858C22.9638 20.0788 23.1664 19.8599 23.3498 19.6203C23.3513 19.6188 23.3528 19.6188 23.3543 19.6159C23.3572 19.6129 23.3602 19.6085 23.3617 19.604C23.3646 19.6011 23.3676 19.5981 23.3691 19.5952C23.3705 19.5937 23.3705 19.5922 23.372 19.5907C24.2239 18.5584 24.8258 17.2318 25.2089 16.1817C26.0815 15.9821 26.7159 14.7575 26.92 13.4782C27.1345 12.1471 26.889 10.7273 26.0534 10.3251C25.9868 9.55304 25.8478 8.80764 25.6378 8.1007C25.762 7.68955 25.83 7.19558 25.8463 6.60104C25.8995 4.55564 23.8956 0.528431 18.8227 0.0359383C16.7655 -0.1652 14.5426 0.489979 13.1716 1.69977C12.4617 2.32685 12.0491 3.0397 11.9737 3.77327C11.0597 3.94926 10.2921 5.22412 10.0436 7.06839C9.88686 8.23233 9.95933 9.47317 10.2226 10.3014C9.33817 10.6726 9.08083 12.1235 9.29824 13.4812C9.51417 14.8314 10.2093 16.1211 11.1558 16.2084C11.5359 17.2628 12.1068 18.5732 12.8625 19.5922C12.8625 19.5922 12.864 19.5937 12.8655 19.5937C12.867 19.5952 12.867 19.5966 12.867 19.5966C13.0563 19.8451 13.2663 20.0714 13.4866 20.2858C10.7506 21.2679 5.1823 23.3044 4.45317 23.6564C3.71517 24.0069 0.201163 28.284 0.43336 33.3554ZM18.5565 25.7284C18.5018 25.7047 18.45 25.6752 18.3909 25.6589C18.1395 25.5953 17.891 25.6426 17.6677 25.7521L16.73 23.8797L19.5016 23.8413L18.5565 25.7284ZM18.1114 26.9796L20.105 33.8154L19.9053 33.8183H16.1813L18.1114 26.9796ZM34.5796 33.4249L34.5027 33.5565C34.4849 33.5743 34.411 33.6527 34.3976 33.6734L34.8058 34.1008L34.2069 33.771C34.1122 33.8035 34.022 33.8183 33.9111 33.8183H23.3631L25.2207 29.8133C25.342 29.5722 25.376 29.3164 25.3272 29.0871L25.1305 28.0326L25.9617 27.2458C26.3639 26.919 26.4911 26.3629 26.2678 25.8955L24.4842 22.1715C27.3253 23.2053 30.7668 24.4787 31.243 24.7079C31.5995 24.9505 34.8384 28.605 34.5796 33.4249ZM11.7711 14.9734C11.6025 14.9157 11.4353 14.9291 11.2815 15.0281C11.1233 14.9912 10.647 14.4203 10.4651 13.2933C10.2847 12.1649 10.5568 11.4727 10.6559 11.3988C10.8349 11.4639 11.0301 11.4417 11.1883 11.3381C11.3451 11.2346 11.4442 11.0601 11.4531 10.8737L11.4797 10.4448C11.4886 10.3458 11.4708 10.2452 11.4294 10.1535C11.1573 9.55747 11.0671 8.32698 11.2164 7.22663C11.4279 5.66633 12.0003 4.95643 12.2133 4.95643C12.4041 5.12503 12.6791 5.15018 12.9025 5.02299C13.1213 4.89432 13.2352 4.63994 13.182 4.38999C13.1554 4.25837 13.1421 4.1223 13.145 3.98476C13.1583 3.5322 13.4452 3.03675 13.954 2.58714C15.0751 1.5992 16.9829 1.04902 18.7089 1.21319C23.0067 1.63026 24.7105 4.90911 24.6661 6.56998C24.6498 7.12459 24.5818 7.56827 24.4635 7.88921C24.4176 8.01196 24.4147 8.14803 24.4546 8.27374C24.709 9.07238 24.8598 9.93461 24.9042 10.8368C24.9116 11.0024 24.9648 11.1518 25.092 11.2583C25.2178 11.3648 25.3553 11.4062 25.5254 11.3869C25.6644 11.4712 25.935 12.1634 25.7546 13.2918C25.5727 14.4203 25.098 14.9897 24.9634 15.0267C24.6572 14.9305 24.3304 15.0991 24.2298 15.4023C23.7417 16.8473 23.125 18.0423 22.4447 18.8586C22.4417 18.8616 22.4417 18.8675 22.4388 18.8705C22.4358 18.8734 22.4314 18.8749 22.4299 18.8794C21.4331 20.1897 19.8669 20.9425 18.1114 20.9425C16.3751 20.9425 14.8088 20.1912 13.812 18.8823C13.2012 18.057 12.5963 16.8029 12.1112 15.3491C12.0521 15.176 11.9426 15.0355 11.7711 14.9734ZM18.1276 22.1271C19.4128 22.1271 20.6226 21.7811 21.649 21.151C22.001 21.2767 22.424 21.4276 22.9002 21.5992C22.9017 21.6006 22.9002 21.6036 22.9017 21.6051L25.1837 26.357L24.0863 27.3937C23.9399 27.5313 23.8734 27.7339 23.9104 27.9306L24.1559 29.3001L22.0587 33.8183H21.2186C21.2142 33.7399 21.2246 33.663 21.2039 33.5846L19.2975 26.8273C19.33 26.7903 19.367 26.7563 19.3907 26.7104L20.5265 24.4358C20.6433 24.2583 20.7069 24.0483 20.7069 23.8265C20.7069 23.2053 20.1996 22.6995 19.5785 22.6995L16.6901 22.701C16.4978 22.6773 16.3041 22.7261 16.1414 22.8089C15.8678 22.9391 15.6637 23.1683 15.5646 23.4538C15.467 23.7422 15.4877 24.0513 15.6252 24.3249C15.6385 24.35 15.6533 24.3752 15.6681 24.3973L16.8986 26.8539C16.903 26.8613 16.9104 26.8642 16.9149 26.8716L15.0455 33.5018C15.0085 33.6009 14.9937 33.7089 14.9893 33.8183H14.1625L12.0565 29.303L12.3109 27.9321C12.3464 27.7354 12.2798 27.5313 12.1349 27.3952L11.0168 26.4087L13.318 21.6066C13.8031 21.432 14.2306 21.2782 14.5885 21.151C15.6178 21.7811 16.8321 22.1271 18.1276 22.1271ZM4.96193 24.7242C5.46034 24.4846 8.893 23.2112 11.7311 22.1789L9.9475 25.8985C9.73009 26.3644 9.85581 26.9175 10.2255 27.2148L11.0893 28.0311L10.897 29.0694C10.8438 29.3164 10.8778 29.5722 10.9902 29.7985L12.8566 33.8183H2.32495C2.21403 33.8183 2.12529 33.8035 2.00253 33.7577C1.97443 33.7399 1.81323 33.626 1.78365 33.6127C1.76738 33.5935 1.69639 33.5107 1.68012 33.4915L1.61505 33.2844C1.39912 28.6035 4.63656 24.9505 4.96193 24.7242Z" fill="#979797"/></svg>