<svg width="52" height="46" viewBox="0 0 52 46" fill="none" xmlns="http://www.w3.org/2000/svg"><path d="M15.7108 1.38682L1.95697 15.1406L7.09897 20.2826L20.8528 6.52882L15.7108 1.38682Z" stroke="#979797" stroke-width="1.5" stroke-miterlimit="10"/><path d="M13.8209 29.3268L12.5794 30.5684C11.5152 31.6326 9.74154 31.6326 8.67735 30.5684C7.61316 29.5042 7.61316 27.7305 8.67735 26.6664L9.91891 25.4248L13.8209 29.3268Z" stroke="#979797" stroke-width="1.5" stroke-miterlimit="10"/><path d="M17.7229 33.2292L15.1807 35.7714C14.1165 36.8356 12.3429 36.8356 11.2787 35.7714C10.2145 34.7072 10.2145 32.9336 11.2787 31.8694L13.8209 29.3271L17.7229 33.2292Z" stroke="#979797" stroke-width="1.5" stroke-miterlimit="10"/><path d="M21.625 37.072L17.25 41.4469C16.1858 42.5111 14.4121 42.5111 13.3479 41.4469C12.2838 40.3828 12.2838 38.6091 13.3479 37.5449L17.723 33.1699L21.625 37.072Z" stroke="#979797" stroke-width="1.5" stroke-miterlimit="10"/><path d="M25.9409 41.3877L23.8125 43.5161C22.5118 44.8168 20.3835 44.8168 19.0237 43.5161C17.9595 42.4519 17.9595 40.6782 19.0237 39.614L21.625 37.0127L25.9409 41.3877Z" stroke="#979797" stroke-width="1.5" stroke-miterlimit="10"/><path d="M31.1381 6.58213L44.8919 20.3359L50.0339 15.1939L36.2801 1.44013L31.1381 6.58213Z" stroke="#979797" stroke-width="1.5" stroke-miterlimit="10"/><path d="M21.152 6.62402H30.9071" stroke="#979797" stroke-width="1.5" stroke-miterlimit="10"/><path d="M45.0371 20.5176L45.5101 20.9906C45.983 21.4635 45.983 22.173 45.5101 22.646L43.0861 25.0699L44.505 26.4889C45.7465 27.7304 45.7465 29.7406 44.505 30.9821C43.2634 32.2237 41.2533 32.2237 40.0117 30.9821L38.5337 29.5041" stroke="#979797" stroke-width="1.5" stroke-miterlimit="10"/><path d="M34.9274 34.3525L38.0017 37.4268C39.1841 38.6092 41.076 38.6092 42.1993 37.4268C43.3818 36.2444 43.3818 34.3525 42.1993 33.2292L38.2973 29.3271" stroke="#979797" stroke-width="1.5" stroke-miterlimit="10"/><path d="M30.6707 38.1956L32.799 40.3239C33.9223 41.4472 35.7551 41.4472 36.8784 40.3239C38.0017 39.2006 38.0017 37.3679 36.8784 36.2445L34.0997 33.4658" stroke="#979797" stroke-width="1.5" stroke-miterlimit="10"/><path d="M6.72631 20.6357C6.25334 21.1087 6.25334 21.8182 6.72631 22.232L27.1824 42.6881C28.3057 43.8114 30.0793 43.8114 31.2027 42.6881C32.326 41.5648 32.326 39.7911 31.2027 38.727L29.8429 37.3672" stroke="#979797" stroke-width="1.5" stroke-miterlimit="10"/><path d="M43.0862 25.0704L30.3159 12.3001C29.3699 11.3542 27.8328 11.3542 26.8868 12.3001L24.6993 14.4876C24.2264 14.9606 23.9899 15.5518 23.9899 16.2021V17.7984C23.9899 19.1582 22.9257 20.2224 21.5659 20.2224C20.2061 20.2224 19.1419 19.1582 19.1419 17.7984V8.2207" stroke="#979797" stroke-width="1.5" stroke-miterlimit="10"/></svg>